<?xml version="1.0" encoding="utf-8"?>
<!-- Generator: Adobe Illustrator 16.0.0, SVG Export Plug-In . SVG Version: 6.00 Build 0)  -->
<!DOCTYPE svg PUBLIC "-//W3C//DTD SVG 1.1//EN" "http://www.w3.org/Graphics/SVG/1.1/DTD/svg11.dtd">
<svg version="1.1" id="Layer_1" xmlns="http://www.w3.org/2000/svg" xmlns:xlink="http://www.w3.org/1999/xlink" x="0px" y="0px"
	 width="287.506px" height="287.506px" viewBox="0 0 287.506 287.506" enable-background="new 0 0 287.506 287.506"
	 xml:space="preserve">
<g>
	<path fill="#2D232E" d="M200.095,173.733c-14.474,0-21.192-0.518-23.777,2.067c-3.102,3.102-2.584,9.82-2.584,24.294v53.812
		c0,23.261,2.584,33.599-29.98,33.599s-29.98-10.338-29.98-33.599v-53.812c0-14.474,1.034-21.709-2.067-24.294
		s-9.821-2.067-24.294-2.067H33.598c-23.26,0-33.598,2.584-33.598-29.98s10.338-29.98,33.598-29.98h53.813
		c14.473,0,21.192,0.518,24.294-2.584c2.585-2.584,2.067-9.304,2.067-23.777V33.598c0-23.26-2.584-33.598,29.98-33.598
		s29.98,10.338,29.98,33.598v53.813c0,14.473,0,20.676,2.584,23.777c2.584,3.102,9.303,2.584,23.777,2.584h53.812
		c23.261,0,33.599-2.584,33.599,29.98s-10.338,29.98-33.599,29.98H200.095z"/>
</g>
</svg>
