<?xml version="1.0" encoding="utf-8"?>
<!-- Generator: Adobe Illustrator 16.0.0, SVG Export Plug-In . SVG Version: 6.00 Build 0)  -->
<!DOCTYPE svg PUBLIC "-//W3C//DTD SVG 1.1//EN" "http://www.w3.org/Graphics/SVG/1.1/DTD/svg11.dtd">
<svg version="1.1" id="Layer_1" xmlns="http://www.w3.org/2000/svg" xmlns:xlink="http://www.w3.org/1999/xlink" x="0px" y="0px"
	 width="52.982px" height="71.667px" viewBox="-214.862 74.252 52.982 71.667"
	 enable-background="new -214.862 74.252 52.982 71.667" xml:space="preserve">
<g>
	<path fill="#C01311" d="M-196.375,107.64v-1.596v5.693c0-4.72,0.23-6.817-2.663-6.817s-2.663,2.097-2.663,6.817v-5.693v1.596
		v19.796c0,4.72-0.229,6.817,2.663,6.817s2.663-2.097,2.663-6.817V107.64z"/>
	<path fill="#C01311" d="M-185.708,107.64v-1.596v5.693c0-4.72,0.23-6.817-2.663-6.817c-2.892,0-2.663,2.097-2.663,6.817v-5.693
		v1.596v19.796c0,4.72-0.229,6.817,2.663,6.817c2.893,0,2.663-2.097,2.663-6.817V107.64z"/>
	<path fill="#C01311" d="M-175.042,107.64v-1.596v5.693c0-4.72,0.23-6.817-2.663-6.817c-2.892,0-2.663,2.097-2.663,6.817v-5.693
		v1.596v19.796c0,4.72-0.229,6.817,2.663,6.817c2.893,0,2.663-2.097,2.663-6.817V107.64z"/>
</g>
<g>
	<path fill="#C01311" d="M-172.38,145.919h-31.982c-3.86,0-7-3.14-7-7V94.587h45.982v44.333
		C-165.38,142.779-168.52,145.919-172.38,145.919z M-207.362,98.587v40.333c0,1.654,1.346,3,3,3h31.982c1.654,0,3-1.346,3-3V98.587
		H-207.362z"/>
</g>
<g>
	<path fill="#C01311" d="M-179.538,85.657h-17.666v-6.834c0-2.52,1.51-4.57,3.366-4.57h10.935c1.855,0,3.365,2.05,3.365,4.57V85.657
		z M-193.865,81.159h11.015v-2.336l-10.987-0.072L-193.865,81.159z"/>
</g>
<g>
	<path fill="#C01311" d="M-167.88,98.919h-40.982c-3.309,0-6-2.691-6-6v-4.666c0-3.309,2.691-6,6-6h40.982c3.309,0,6,2.691,6,6
		v4.666C-161.88,96.228-164.571,98.919-167.88,98.919z M-208.862,86.253c-1.103,0-2,0.897-2,2v4.666c0,1.103,0.897,2,2,2h40.982
		c1.103,0,2-0.897,2-2v-4.666c0-1.103-0.897-2-2-2H-208.862z"/>
</g>
</svg>
