<?xml version="1.0" encoding="utf-8"?>
<!-- Generator: Adobe Illustrator 16.0.0, SVG Export Plug-In . SVG Version: 6.00 Build 0)  -->
<!DOCTYPE svg PUBLIC "-//W3C//DTD SVG 1.1//EN" "http://www.w3.org/Graphics/SVG/1.1/DTD/svg11.dtd">
<svg version="1.1" id="Layer_1" xmlns="http://www.w3.org/2000/svg" xmlns:xlink="http://www.w3.org/1999/xlink" x="0px" y="0px"
	 width="30px" height="30px" viewBox="0 0 257.266 307.902" enable-background="new 0 0 257.266 307.902"
	 xml:space="preserve">
<g>
	<path class="fill" d="M238.244,256.237l-0.556-0.607l-0.464-0.681l-71.942-105.341l-4.656-6.818l4.941-6.614l65.261-87.358
		l0.814-1.091l1.046-0.871c6.233-5.194,12.673-10.417,19.142-15.523c4.372-3.635,5.357-6.346,5.437-8.198
		c-2.086-1.589-5.821-8.807-21.266-15.212c-23.321-9.662-31.924-6.907-33.176-6.941c-4.866,0.488-7.603,1.121-9.027,1.558
		c-1.308,3.455-2.642,7.084-3.978,10.829l-0.479,1.342l-0.79,1.185l-49.332,73.996l-10.297,15.446l-9.313-16.057l-44.705-77.08
		l-0.456-0.786l-0.327-0.847c-1.394-3.605-2.971-7.093-4.696-10.389c-0.5,0.007-1.083,0.062-1.736,0.166l-0.083,0.013l-0.084,0.013
		C65.031,0.728,57.73-3.637,36,10.424c-9.707,6.281-15.852,17.132-18.723,19.678c3.047,3.647,5.426,5.609,7.063,6.66l2.125,1.364
		l1.361,2.126l63.205,98.661l4.044,6.313l-4.116,6.265L21.387,257.386c-0.895,1.596-2.727,3.759-15.001,16.527l-0.188,0.196
		l-0.197,0.185c-4.219,3.996-5.583,6.402-6.001,7.354l0.006,0.009l0.048,0.074c0.382,0.556,0.388,13.77,26.446,22.89
		c20.562,7.212,33.248,0.288,36.506,0.288c0.631,0,0.963-0.042,1.077-0.06c1.174-0.185,3-2.683,4.463-7.841
		c1.371-6.169,2.94-12.61,4.665-19.149l0.432-1.635l0.881-1.443l45.219-73.996l9.488-15.526l10.019,15.189
		c32.839,49.788,50.98,81.97,55.458,98.386c0.746,2.772,1.558,4.526,6.01,4.807c2.606-0.816,12.542,1.276,29.783-7.717l0.17-0.09
		l0.173-0.082c20.752-9.964,22.042-18.719,22.616-19.324c0.519-0.692,0.714-1.149,0.759-1.31c-0.035-0.304-0.424-2.491-4.458-6.833
		C245.99,264.518,242.115,260.465,238.244,256.237z"/>
</g>
</svg>
